<svg width="1500" height="1500" viewBox="0 0 1500 1500" fill="none" xmlns="http://www.w3.org/2000/svg">
<rect width="1500" height="1500" fill="white"/>
<path d="M972.251 950.486C974.522 831.29 1072.94 736.547 1192.14 738.817C1311.34 741.088 1406.08 839.512 1403.81 958.708C1401.54 1077.9 1303.11 1172.65 1183.92 1170.38C1138.46 1169.51 1096.57 1154.61 1062.25 1130.02L936.915 1250.58C924.335 1262.68 924.298 1262.47 916.844 1253.73C916.764 1253.75 916.685 1253.76 916.605 1253.78C916.461 1253.81 916.317 1253.84 916.173 1253.87C916.058 1253.9 915.942 1253.92 915.827 1253.94C915.699 1253.96 915.57 1253.99 915.441 1254.01C915.315 1254.03 915.188 1254.05 915.061 1254.08C914.929 1254.1 914.798 1254.12 914.667 1254.14C914.55 1254.16 914.433 1254.17 914.316 1254.19C914.184 1254.21 914.052 1254.23 913.919 1254.25C913.801 1254.26 913.683 1254.28 913.565 1254.29C913.415 1254.31 913.265 1254.32 913.114 1254.34C913.019 1254.35 912.924 1254.36 912.829 1254.37C912.679 1254.38 912.529 1254.4 912.379 1254.41C912.26 1254.42 912.141 1254.43 912.021 1254.43C911.89 1254.44 911.759 1254.45 911.627 1254.46C911.505 1254.47 911.383 1254.47 911.261 1254.48C911.126 1254.48 910.992 1254.49 910.857 1254.49C910.729 1254.5 910.601 1254.5 910.473 1254.5C910.348 1254.51 910.223 1254.51 910.098 1254.51C909.984 1254.51 909.87 1254.51 909.756 1254.51C909.591 1254.51 909.426 1254.51 909.261 1254.51C909.182 1254.51 909.103 1254.51 909.023 1254.5C908.854 1254.5 908.686 1254.5 908.517 1254.49C908.421 1254.49 908.325 1254.48 908.229 1254.48C908.08 1254.47 907.93 1254.46 907.78 1254.45C907.658 1254.44 907.535 1254.44 907.413 1254.43C907.299 1254.42 907.186 1254.41 907.072 1254.4C906.919 1254.39 906.766 1254.37 906.613 1254.36C906.514 1254.35 906.415 1254.34 906.316 1254.33C906.18 1254.31 906.044 1254.3 905.907 1254.28C905.756 1254.27 905.606 1254.25 905.455 1254.23C905.366 1254.21 905.276 1254.2 905.187 1254.19C905.037 1254.17 904.888 1254.14 904.738 1254.12C904.614 1254.1 904.491 1254.08 904.367 1254.06C904.237 1254.04 904.107 1254.02 903.978 1253.99C903.874 1253.97 903.77 1253.95 903.666 1253.93C903.503 1253.9 903.341 1253.87 903.179 1253.84C903.085 1253.82 902.991 1253.8 902.897 1253.78C902.768 1253.75 902.639 1253.72 902.51 1253.69C902.371 1253.66 902.232 1253.63 902.094 1253.59C901.988 1253.57 901.883 1253.54 901.777 1253.51C901.641 1253.48 901.506 1253.44 901.37 1253.41C901.253 1253.37 901.136 1253.34 901.019 1253.31C900.889 1253.27 900.759 1253.24 900.629 1253.2C900.509 1253.16 900.389 1253.12 900.269 1253.09C900.146 1253.05 900.023 1253.01 899.901 1252.97C899.771 1252.93 899.641 1252.89 899.512 1252.85C899.396 1252.81 899.28 1252.77 899.165 1252.73C899.026 1252.68 898.888 1252.63 898.75 1252.58C898.657 1252.55 898.564 1252.51 898.471 1252.48C898.314 1252.42 898.159 1252.36 898.003 1252.3C897.913 1252.26 897.824 1252.23 897.734 1252.19C897.592 1252.14 897.45 1252.07 897.309 1252.02C897.21 1251.97 897.11 1251.93 897.012 1251.89C896.886 1251.84 896.761 1251.78 896.636 1251.73C896.517 1251.67 896.398 1251.62 896.28 1251.57C896.153 1251.51 896.027 1251.45 895.9 1251.39C895.801 1251.34 895.702 1251.29 895.604 1251.24C895.431 1251.16 895.259 1251.07 895.088 1250.99C895.034 1250.96 894.98 1250.93 894.926 1250.9C894.793 1250.83 894.661 1250.76 894.528 1250.69C894.406 1250.63 894.284 1250.56 894.162 1250.49C894.088 1250.45 894.014 1250.41 893.94 1250.37C893.8 1250.29 893.659 1250.21 893.52 1250.13C893.392 1250.05 893.267 1249.98 893.141 1249.9C893.039 1249.84 892.937 1249.78 892.836 1249.71C892.692 1249.63 892.549 1249.53 892.405 1249.44C892.335 1249.4 892.264 1249.35 892.193 1249.31C892.053 1249.22 891.914 1249.12 891.775 1249.03C891.687 1248.97 891.598 1248.91 891.511 1248.85C891.403 1248.77 891.297 1248.7 891.19 1248.62C891.075 1248.54 890.959 1248.46 890.845 1248.38C890.758 1248.31 890.673 1248.25 890.587 1248.18C890.462 1248.09 890.337 1248 890.214 1247.91C890.093 1247.81 889.973 1247.72 889.854 1247.62C889.769 1247.56 889.683 1247.49 889.599 1247.42C889.46 1247.31 889.324 1247.2 889.187 1247.08C889.116 1247.02 889.043 1246.96 888.972 1246.9C888.659 1246.64 888.352 1246.36 888.048 1246.08C887.551 1245.63 887.064 1245.16 886.59 1244.67C886.398 1244.47 886.208 1244.26 886.022 1244.06C885.656 1243.66 885.302 1243.25 884.96 1242.84C884.362 1242.12 883.802 1241.37 883.276 1240.61C883.189 1240.49 883.102 1240.36 883.017 1240.23C882.968 1240.16 882.921 1240.09 882.873 1240.01C882.777 1239.87 882.68 1239.72 882.587 1239.57C882.546 1239.51 882.506 1239.44 882.466 1239.38C882.229 1239 882 1238.62 881.78 1238.23C881.711 1238.11 881.643 1237.98 881.575 1237.86C881.516 1237.75 881.456 1237.65 881.398 1237.54C881.334 1237.42 881.272 1237.3 881.21 1237.18C881.152 1237.06 881.093 1236.95 881.036 1236.84C880.976 1236.72 880.917 1236.6 880.858 1236.48C880.803 1236.36 880.747 1236.25 880.693 1236.14C880.634 1236.01 880.576 1235.88 880.518 1235.76C880.469 1235.65 880.42 1235.54 880.372 1235.44C880.308 1235.29 880.246 1235.15 880.184 1235C880.144 1234.91 880.105 1234.82 880.066 1234.73C880.006 1234.58 879.947 1234.43 879.889 1234.29C879.851 1234.19 879.812 1234.09 879.775 1234C879.725 1233.87 879.676 1233.74 879.628 1233.61C879.585 1233.49 879.541 1233.38 879.5 1233.26C879.445 1233.11 879.392 1232.96 879.34 1232.8C879.313 1232.72 879.286 1232.65 879.26 1232.57C879.205 1232.4 879.153 1232.24 879.101 1232.07C879.073 1231.99 879.044 1231.9 879.017 1231.81C878.973 1231.67 878.933 1231.53 878.892 1231.38C878.861 1231.28 878.829 1231.17 878.799 1231.06C878.754 1230.9 878.712 1230.74 878.67 1230.58C878.649 1230.5 878.627 1230.42 878.606 1230.34C878.57 1230.2 878.534 1230.05 878.499 1229.91C878.47 1229.79 878.441 1229.67 878.414 1229.55C878.382 1229.41 878.353 1229.27 878.323 1229.13C878.302 1229.03 878.28 1228.93 878.26 1228.83C878.231 1228.69 878.204 1228.55 878.177 1228.41C878.154 1228.28 878.13 1228.16 878.108 1228.04C878.087 1227.92 878.067 1227.8 878.047 1227.68C878.024 1227.54 878.002 1227.41 877.981 1227.27C877.964 1227.16 877.947 1227.04 877.931 1226.92C877.912 1226.79 877.895 1226.67 877.878 1226.54C877.859 1226.39 877.841 1226.25 877.824 1226.1C877.812 1225.99 877.799 1225.89 877.788 1225.78C877.775 1225.65 877.763 1225.53 877.751 1225.4C877.738 1225.26 877.725 1225.12 877.714 1224.98C877.704 1224.87 877.696 1224.75 877.687 1224.63C877.678 1224.5 877.67 1224.37 877.662 1224.24C877.654 1224.1 877.646 1223.95 877.64 1223.8C877.636 1223.71 877.632 1223.61 877.629 1223.52C877.623 1223.37 877.619 1223.21 877.616 1223.06C877.614 1222.95 877.612 1222.83 877.61 1222.72C877.609 1222.58 877.608 1222.44 877.608 1222.3C877.609 1222.19 877.61 1222.07 877.611 1221.95C877.613 1221.81 877.616 1221.68 877.619 1221.54C877.622 1221.43 877.626 1221.32 877.63 1221.2C877.635 1221.05 877.641 1220.9 877.648 1220.75C877.654 1220.65 877.659 1220.55 877.665 1220.45C877.674 1220.3 877.684 1220.15 877.694 1220.01C877.703 1219.89 877.711 1219.78 877.721 1219.67C877.733 1219.52 877.746 1219.37 877.761 1219.23C877.77 1219.13 877.781 1219.03 877.791 1218.94C877.808 1218.78 877.825 1218.62 877.845 1218.46C877.856 1218.36 877.869 1218.27 877.882 1218.17C877.901 1218.02 877.921 1217.87 877.942 1217.73C877.961 1217.59 877.982 1217.46 878.003 1217.33C878.02 1217.22 878.037 1217.11 878.056 1217C878.078 1216.87 878.102 1216.74 878.126 1216.61C878.15 1216.47 878.174 1216.34 878.2 1216.21C878.222 1216.1 878.244 1215.99 878.267 1215.88C878.293 1215.75 878.319 1215.62 878.348 1215.49C878.378 1215.35 878.41 1215.21 878.442 1215.07C878.468 1214.96 878.494 1214.85 878.521 1214.74C878.551 1214.61 878.581 1214.49 878.612 1214.37C878.647 1214.23 878.682 1214.1 878.719 1213.96C878.746 1213.86 878.775 1213.76 878.804 1213.66C878.845 1213.51 878.886 1213.36 878.929 1213.22C878.956 1213.13 878.984 1213.03 879.013 1212.94C879.063 1212.77 879.115 1212.61 879.169 1212.44C879.189 1212.38 879.209 1212.32 879.229 1212.26C879.285 1212.09 879.341 1211.92 879.4 1211.75C879.443 1211.63 879.489 1211.51 879.533 1211.38C879.557 1211.32 879.579 1211.25 879.604 1211.18C877.049 1205.09 877.306 1199.25 882.602 1194.15L1007.94 1073.59C984.674 1038.37 971.385 995.941 972.251 950.486ZM916.933 1253.71C917.068 1253.68 917.202 1253.65 917.337 1253.61C917.202 1253.65 917.068 1253.68 916.933 1253.71ZM917.687 1253.53C917.829 1253.49 917.972 1253.45 918.114 1253.42C917.972 1253.45 917.829 1253.49 917.687 1253.53ZM918.406 1253.34C918.573 1253.29 918.739 1253.24 918.905 1253.19C918.739 1253.24 918.573 1253.29 918.406 1253.34ZM919.148 1253.12C919.287 1253.08 919.425 1253.04 919.562 1252.99C919.425 1253.04 919.287 1253.08 919.148 1253.12ZM919.926 1252.87C920.066 1252.83 920.205 1252.78 920.344 1252.73C920.205 1252.78 920.066 1252.83 919.926 1252.87ZM920.615 1252.64C920.76 1252.58 920.904 1252.53 921.048 1252.48C920.904 1252.53 920.76 1252.58 920.615 1252.64ZM921.386 1252.35C921.517 1252.3 921.648 1252.25 921.779 1252.19C921.648 1252.25 921.517 1252.3 921.386 1252.35ZM922.075 1252.07C922.235 1252.01 922.394 1251.94 922.553 1251.87C922.394 1251.94 922.235 1252.01 922.075 1252.07ZM922.791 1251.77C922.971 1251.69 923.151 1251.6 923.33 1251.52C923.151 1251.6 922.971 1251.69 922.791 1251.77ZM923.49 1251.45C923.663 1251.37 923.835 1251.28 924.006 1251.2C923.835 1251.28 923.663 1251.37 923.49 1251.45ZM924.213 1251.1C924.353 1251.03 924.492 1250.95 924.632 1250.88C924.492 1250.95 924.353 1251.03 924.213 1251.1ZM924.929 1250.72C925.08 1250.64 925.231 1250.56 925.382 1250.48C925.231 1250.56 925.08 1250.64 924.929 1250.72ZM925.596 1250.36C925.743 1250.27 925.888 1250.19 926.034 1250.1C925.888 1250.19 925.743 1250.27 925.596 1250.36ZM927.433 1249.23C927.059 1249.48 926.683 1249.72 926.302 1249.95C926.683 1249.72 927.059 1249.48 927.433 1249.23ZM928.287 1248.65C928.453 1248.53 928.618 1248.41 928.782 1248.29C928.618 1248.41 928.453 1248.53 928.287 1248.65ZM929.587 1247.68C929.707 1247.59 929.825 1247.49 929.944 1247.4C929.825 1247.49 929.707 1247.59 929.587 1247.68ZM931.455 1246.1C931.161 1246.37 930.862 1246.63 930.561 1246.89C930.862 1246.63 931.161 1246.37 931.455 1246.1V1246.1ZM879.785 1210.71C879.741 1210.82 879.697 1210.93 879.654 1211.05C879.697 1210.93 879.741 1210.82 879.785 1210.71ZM880.057 1210.03C880.02 1210.12 879.984 1210.21 879.948 1210.29C879.984 1210.21 880.02 1210.12 880.057 1210.03ZM880.335 1209.38C880.307 1209.44 880.279 1209.51 880.251 1209.57C880.279 1209.51 880.307 1209.44 880.335 1209.38ZM880.664 1208.66C880.634 1208.72 880.604 1208.78 880.574 1208.85C880.604 1208.78 880.634 1208.72 880.664 1208.66ZM881.027 1207.91C880.984 1208 880.94 1208.08 880.897 1208.17C880.94 1208.08 880.984 1208 881.027 1207.91ZM881.383 1207.22C881.338 1207.31 881.294 1207.39 881.25 1207.47C881.294 1207.39 881.338 1207.31 881.383 1207.22ZM881.836 1206.4C881.763 1206.53 881.69 1206.66 881.619 1206.79C881.69 1206.66 881.763 1206.53 881.836 1206.4ZM882.143 1205.88C882.1 1205.95 882.056 1206.02 882.014 1206.09C882.056 1206.02 882.1 1205.95 882.143 1205.88ZM882.612 1205.12C882.544 1205.22 882.475 1205.33 882.408 1205.44C882.475 1205.33 882.544 1205.22 882.612 1205.12ZM882.995 1204.53C882.942 1204.61 882.887 1204.69 882.834 1204.77C882.887 1204.69 882.942 1204.61 882.995 1204.53ZM884.385 1202.6C884.329 1202.68 884.272 1202.75 884.217 1202.82C884.272 1202.75 884.329 1202.68 884.385 1202.6ZM885.538 1201.21C885.432 1201.33 885.325 1201.45 885.221 1201.57C885.325 1201.45 885.432 1201.33 885.538 1201.21ZM886.014 1200.68C885.927 1200.77 885.84 1200.87 885.755 1200.96C885.84 1200.87 885.927 1200.77 886.014 1200.68ZM1204.07 1162.81C1197.47 1163.31 1190.8 1163.51 1184.05 1163.38C1183.33 1163.36 1182.61 1163.35 1181.89 1163.32L1184.05 1163.38C1190.8 1163.51 1197.47 1163.31 1204.07 1162.81ZM1175.51 1163.04C1176.67 1163.11 1177.82 1163.17 1178.98 1163.22C1177.82 1163.17 1176.67 1163.11 1175.51 1163.04ZM1173.34 1162.9C1173.83 1162.93 1174.33 1162.97 1174.82 1163C1174.33 1162.97 1173.83 1162.93 1173.34 1162.9ZM1171.33 1162.75C1171.78 1162.79 1172.22 1162.82 1172.66 1162.85C1172.22 1162.82 1171.78 1162.79 1171.33 1162.75ZM1204.66 1162.77C1204.9 1162.75 1205.14 1162.73 1205.39 1162.71C1205.14 1162.73 1204.9 1162.75 1204.66 1162.77ZM1208.01 1162.48C1207.21 1162.55 1206.4 1162.62 1205.6 1162.69C1206.4 1162.62 1207.21 1162.55 1208.01 1162.48ZM1169.2 1162.57C1169.45 1162.59 1169.7 1162.61 1169.95 1162.63C1169.7 1162.61 1169.45 1162.59 1169.2 1162.57ZM1167.14 1162.38C1167.34 1162.4 1167.54 1162.41 1167.73 1162.43C1167.54 1162.41 1167.34 1162.4 1167.14 1162.38ZM1208.98 1162.38C1209.09 1162.37 1209.2 1162.36 1209.3 1162.35C1209.2 1162.36 1209.09 1162.37 1208.98 1162.38ZM1213.27 1161.91C1212.09 1162.05 1210.91 1162.18 1209.72 1162.31C1210.91 1162.18 1212.09 1162.05 1213.27 1161.91ZM1165.05 1162.16C1165.23 1162.18 1165.41 1162.19 1165.58 1162.21C1165.41 1162.19 1165.23 1162.18 1165.05 1162.16ZM1162.94 1161.91C1163.19 1161.95 1163.44 1161.97 1163.69 1162C1163.44 1161.97 1163.19 1161.95 1162.94 1161.91ZM1221.02 1160.83C1218.5 1161.23 1215.96 1161.58 1213.41 1161.89C1215.96 1161.58 1218.5 1161.23 1221.02 1160.83ZM1160.79 1161.65C1161.15 1161.69 1161.51 1161.74 1161.87 1161.78C1161.51 1161.74 1161.15 1161.69 1160.79 1161.65ZM1158.8 1161.38C1159.12 1161.42 1159.44 1161.46 1159.76 1161.51C1159.44 1161.46 1159.12 1161.42 1158.8 1161.38ZM1156.7 1161.07C1156.98 1161.11 1157.27 1161.15 1157.55 1161.2C1157.27 1161.15 1156.98 1161.11 1156.7 1161.07ZM1154.66 1160.75C1154.96 1160.8 1155.27 1160.85 1155.58 1160.9C1155.27 1160.85 1154.96 1160.8 1154.66 1160.75ZM1221.5 1160.75C1221.78 1160.71 1222.06 1160.66 1222.34 1160.62C1222.06 1160.66 1221.78 1160.71 1221.5 1160.75ZM1222.53 1160.58C1222.9 1160.52 1223.27 1160.46 1223.64 1160.4C1223.27 1160.46 1222.9 1160.52 1222.53 1160.58ZM1152.6 1160.41C1152.9 1160.46 1153.2 1160.51 1153.5 1160.56C1153.2 1160.51 1152.9 1160.46 1152.6 1160.41ZM1236.33 1157.81C1232.18 1158.79 1227.99 1159.65 1223.75 1160.38C1227.99 1159.65 1232.18 1158.79 1236.33 1157.81ZM1150.6 1160.06C1150.84 1160.1 1151.08 1160.14 1151.32 1160.19C1151.08 1160.14 1150.84 1160.1 1150.6 1160.06ZM1148.56 1159.68C1148.8 1159.73 1149.04 1159.77 1149.28 1159.81C1149.04 1159.77 1148.8 1159.73 1148.56 1159.68ZM1146.51 1159.28C1146.77 1159.33 1147.03 1159.38 1147.29 1159.43C1147.03 1159.38 1146.77 1159.33 1146.51 1159.28ZM1144.49 1158.86C1144.76 1158.91 1145.02 1158.97 1145.28 1159.02C1145.02 1158.97 1144.76 1158.91 1144.49 1158.86ZM1142.47 1158.42C1142.75 1158.48 1143.02 1158.54 1143.29 1158.6C1143.02 1158.54 1142.75 1158.48 1142.47 1158.42ZM1140.41 1157.95C1140.71 1158.02 1141.01 1158.09 1141.31 1158.16C1141.01 1158.09 1140.71 1158.02 1140.41 1157.95ZM1236.63 1157.74C1236.92 1157.67 1237.21 1157.6 1237.51 1157.52C1237.21 1157.6 1236.92 1157.67 1236.63 1157.74ZM1138.41 1157.47C1138.75 1157.55 1139.09 1157.63 1139.42 1157.71C1139.09 1157.63 1138.75 1157.55 1138.41 1157.47ZM1238.11 1157.38C1238.35 1157.32 1238.58 1157.26 1238.82 1157.2C1238.58 1157.26 1238.35 1157.32 1238.11 1157.38ZM1136.47 1156.99C1136.75 1157.06 1137.03 1157.13 1137.3 1157.2C1137.03 1157.13 1136.75 1157.06 1136.47 1156.99ZM1239.32 1157.08C1239.55 1157.02 1239.78 1156.96 1240.01 1156.9C1239.78 1156.96 1239.55 1157.02 1239.32 1157.08ZM1240.48 1156.78C1240.77 1156.7 1241.05 1156.63 1241.34 1156.55C1241.05 1156.63 1240.77 1156.7 1240.48 1156.78ZM1134.42 1156.46C1134.74 1156.54 1135.05 1156.62 1135.37 1156.71C1135.05 1156.62 1134.74 1156.54 1134.42 1156.46ZM1242.99 1156.11C1244.09 1155.81 1245.19 1155.5 1246.29 1155.19C1245.19 1155.5 1244.09 1155.81 1242.99 1156.11ZM1132.39 1155.91C1132.74 1156 1133.1 1156.1 1133.46 1156.2C1133.1 1156.1 1132.74 1156 1132.39 1155.91ZM1130.43 1155.36C1130.8 1155.46 1131.16 1155.56 1131.53 1155.67C1131.16 1155.56 1130.8 1155.46 1130.43 1155.36ZM1249.32 1154.28C1249.49 1154.23 1249.66 1154.18 1249.82 1154.13C1249.66 1154.18 1249.49 1154.23 1249.32 1154.28ZM1128.48 1154.79C1128.84 1154.9 1129.21 1155 1129.58 1155.11C1129.21 1155 1128.84 1154.9 1128.48 1154.79ZM1126.59 1154.22C1126.89 1154.31 1127.19 1154.4 1127.49 1154.49C1127.19 1154.4 1126.89 1154.31 1126.59 1154.22ZM1250.5 1153.91C1250.72 1153.85 1250.94 1153.78 1251.16 1153.71C1250.94 1153.78 1250.72 1153.85 1250.5 1153.91ZM1124.62 1153.6C1124.93 1153.7 1125.23 1153.79 1125.54 1153.89C1125.23 1153.79 1124.93 1153.7 1124.62 1153.6ZM1251.5 1153.6C1251.79 1153.51 1252.08 1153.42 1252.36 1153.32C1252.08 1153.42 1251.79 1153.51 1251.5 1153.6ZM1122.64 1152.96C1122.98 1153.07 1123.32 1153.18 1123.66 1153.29C1123.32 1153.18 1122.98 1153.07 1122.64 1152.96ZM1253.01 1153.11C1253.19 1153.05 1253.38 1152.99 1253.57 1152.93C1253.38 1152.99 1253.19 1153.05 1253.01 1153.11ZM1253.98 1152.79C1254.26 1152.7 1254.54 1152.6 1254.82 1152.51C1254.54 1152.6 1254.26 1152.7 1253.98 1152.79ZM1120.69 1152.3C1121.04 1152.42 1121.39 1152.54 1121.74 1152.66C1121.39 1152.54 1121.04 1152.42 1120.69 1152.3ZM1255.17 1152.39C1255.43 1152.3 1255.69 1152.21 1255.95 1152.13C1255.69 1152.21 1255.43 1152.3 1255.17 1152.39ZM1118.86 1151.67C1119.17 1151.78 1119.48 1151.89 1119.79 1152C1119.48 1151.89 1119.17 1151.78 1118.86 1151.67ZM1258.41 1151.26C1257.74 1151.5 1257.07 1151.74 1256.41 1151.97C1257.07 1151.74 1257.74 1151.5 1258.41 1151.26ZM1116.81 1150.94C1117.16 1151.07 1117.51 1151.2 1117.86 1151.32C1117.51 1151.2 1117.16 1151.07 1116.81 1150.94ZM1262.03 1149.93C1260.93 1150.34 1259.84 1150.75 1258.74 1151.14C1259.84 1150.75 1260.93 1150.34 1262.03 1149.93ZM1114.97 1150.26C1115.31 1150.39 1115.65 1150.52 1115.99 1150.64C1115.65 1150.52 1115.31 1150.39 1114.97 1150.26ZM1113.05 1149.54C1113.4 1149.67 1113.75 1149.81 1114.11 1149.94C1113.75 1149.81 1113.4 1149.67 1113.05 1149.54ZM1266.75 1148.08C1265.63 1148.53 1264.5 1148.98 1263.38 1149.41C1264.5 1148.98 1265.63 1148.53 1266.75 1148.08ZM1111.17 1148.8C1111.51 1148.94 1111.85 1149.07 1112.19 1149.2C1111.85 1149.07 1111.51 1148.94 1111.17 1148.8ZM1109.34 1148.07C1109.66 1148.2 1109.99 1148.33 1110.31 1148.46C1109.99 1148.33 1109.66 1148.2 1109.34 1148.07ZM1267.29 1147.85C1267.46 1147.78 1267.63 1147.71 1267.79 1147.64C1267.63 1147.71 1267.46 1147.78 1267.29 1147.85ZM1107.64 1147.37C1107.86 1147.46 1108.09 1147.55 1108.31 1147.65C1108.09 1147.55 1107.86 1147.46 1107.64 1147.37ZM1268.45 1147.37C1268.65 1147.29 1268.85 1147.2 1269.05 1147.12C1268.85 1147.2 1268.65 1147.29 1268.45 1147.37ZM1269.58 1146.89C1269.8 1146.8 1270.01 1146.71 1270.22 1146.62C1270.01 1146.71 1269.8 1146.8 1269.58 1146.89ZM1105.68 1146.54C1105.94 1146.65 1106.2 1146.76 1106.46 1146.87C1106.2 1146.76 1105.94 1146.65 1105.68 1146.54ZM1272.55 1145.61C1271.89 1145.9 1271.22 1146.19 1270.55 1146.48C1271.22 1146.19 1271.89 1145.9 1272.55 1145.61ZM1103.82 1145.73C1104.1 1145.85 1104.38 1145.98 1104.67 1146.1C1104.38 1145.98 1104.1 1145.85 1103.82 1145.73ZM1101.88 1144.86C1102.19 1145 1102.51 1145.15 1102.83 1145.29C1102.51 1145.15 1102.19 1145 1101.88 1144.86ZM1274.19 1144.87C1274.4 1144.78 1274.61 1144.68 1274.82 1144.58C1274.61 1144.68 1274.4 1144.78 1274.19 1144.87ZM1100.04 1144.02C1100.38 1144.18 1100.72 1144.33 1101.07 1144.49C1100.72 1144.33 1100.38 1144.18 1100.04 1144.02ZM1275.42 1144.31C1275.59 1144.23 1275.77 1144.15 1275.94 1144.07C1275.77 1144.15 1275.59 1144.23 1275.42 1144.31ZM1277.35 1143.41C1277.67 1143.26 1277.99 1143.1 1278.31 1142.95C1277.99 1143.1 1277.67 1143.26 1277.35 1143.41ZM1098.3 1143.2C1098.59 1143.34 1098.88 1143.48 1099.18 1143.61C1098.88 1143.48 1098.59 1143.34 1098.3 1143.2ZM1278.67 1142.77C1278.94 1142.64 1279.21 1142.51 1279.48 1142.38C1279.21 1142.51 1278.94 1142.64 1278.67 1142.77ZM1096.53 1142.34C1096.81 1142.48 1097.09 1142.62 1097.37 1142.75C1097.09 1142.62 1096.81 1142.48 1096.53 1142.34ZM1279.67 1142.29C1279.99 1142.13 1280.31 1141.98 1280.63 1141.82C1280.31 1141.98 1279.99 1142.13 1279.67 1142.29ZM1094.77 1141.48C1095.01 1141.6 1095.25 1141.72 1095.49 1141.83C1095.25 1141.72 1095.01 1141.6 1094.77 1141.48ZM1282.85 1140.7C1282.19 1141.04 1281.53 1141.37 1280.87 1141.7C1281.53 1141.37 1282.19 1141.04 1282.85 1140.7ZM1092.86 1140.51C1093.16 1140.66 1093.46 1140.82 1093.76 1140.97C1093.46 1140.82 1093.16 1140.66 1092.86 1140.51ZM1283.16 1140.54C1283.43 1140.41 1283.69 1140.27 1283.95 1140.14C1283.69 1140.27 1283.43 1140.41 1283.16 1140.54ZM1090.9 1139.49C1091.27 1139.68 1091.63 1139.88 1091.99 1140.06C1091.63 1139.88 1091.27 1139.68 1090.9 1139.49ZM1286.53 1138.77C1286.81 1138.63 1287.09 1138.48 1287.36 1138.33C1287.09 1138.48 1286.81 1138.63 1286.53 1138.77ZM1089.02 1138.49C1089.44 1138.72 1089.87 1138.95 1090.29 1139.17C1089.87 1138.95 1089.44 1138.72 1089.02 1138.49ZM1087.48 1137.65C1087.84 1137.85 1088.19 1138.04 1088.54 1138.24C1088.19 1138.04 1087.84 1137.85 1087.48 1137.65ZM1287.58 1138.21C1287.83 1138.07 1288.09 1137.93 1288.34 1137.79C1288.09 1137.93 1287.83 1138.07 1287.58 1138.21ZM1288.79 1137.55C1289.01 1137.42 1289.24 1137.3 1289.47 1137.17C1289.24 1137.3 1289.01 1137.42 1288.79 1137.55ZM1085.99 1136.83C1086.21 1136.95 1086.43 1137.07 1086.64 1137.19C1086.43 1137.07 1086.21 1136.95 1085.99 1136.83ZM1290.04 1136.85C1290.18 1136.77 1290.33 1136.69 1290.48 1136.61C1290.33 1136.69 1290.18 1136.77 1290.04 1136.85ZM1291.04 1136.29C1291.26 1136.16 1291.49 1136.03 1291.71 1135.91C1291.49 1136.03 1291.26 1136.16 1291.04 1136.29ZM1084.02 1135.71C1084.31 1135.87 1084.59 1136.04 1084.88 1136.2C1084.59 1136.04 1084.31 1135.87 1084.02 1135.71ZM1292.01 1135.73C1292.26 1135.59 1292.5 1135.45 1292.75 1135.3C1292.5 1135.45 1292.26 1135.59 1292.01 1135.73ZM1082.26 1134.69C1082.6 1134.88 1082.93 1135.08 1083.27 1135.28C1082.93 1135.08 1082.6 1134.88 1082.26 1134.69ZM1293.17 1135.06C1293.4 1134.93 1293.62 1134.8 1293.84 1134.67C1293.62 1134.8 1293.4 1134.93 1293.17 1135.06ZM1294.31 1134.39C1294.5 1134.27 1294.7 1134.16 1294.89 1134.04C1294.7 1134.16 1294.5 1134.27 1294.31 1134.39ZM1080.71 1133.77C1080.96 1133.92 1081.21 1134.07 1081.46 1134.21C1081.21 1134.07 1080.96 1133.92 1080.71 1133.77ZM1295.28 1133.81C1295.57 1133.64 1295.86 1133.47 1296.14 1133.29C1295.86 1133.47 1295.57 1133.64 1295.28 1133.81ZM1078.97 1132.71C1079.23 1132.87 1079.49 1133.03 1079.75 1133.19C1079.49 1133.03 1079.23 1132.87 1078.97 1132.71ZM1296.44 1133.11C1296.64 1132.99 1296.84 1132.87 1297.05 1132.74C1296.84 1132.87 1296.64 1132.99 1296.44 1133.11ZM1298.63 1131.76C1298.78 1131.66 1298.94 1131.57 1299.09 1131.47C1298.94 1131.57 1298.78 1131.66 1298.63 1131.76ZM1077.1 1131.55C1077.42 1131.75 1077.73 1131.95 1078.05 1132.14C1077.73 1131.95 1077.42 1131.75 1077.1 1131.55ZM1075.41 1130.48C1075.73 1130.69 1076.05 1130.89 1076.38 1131.1C1076.05 1130.89 1075.73 1130.69 1075.41 1130.48ZM1300.94 1130.29C1301.02 1130.24 1301.11 1130.18 1301.2 1130.13C1301.11 1130.18 1301.02 1130.24 1300.94 1130.29ZM1073.96 1129.55C1074.21 1129.71 1074.46 1129.87 1074.71 1130.04C1074.46 1129.87 1074.21 1129.71 1073.96 1129.55ZM1302.97 1128.97C1303.1 1128.88 1303.23 1128.8 1303.36 1128.71C1303.23 1128.8 1303.1 1128.88 1302.97 1128.97ZM1070 1126.9C1070.45 1127.21 1070.9 1127.51 1071.35 1127.82C1070.9 1127.51 1070.45 1127.21 1070 1126.9ZM1305.08 1127.56C1305.18 1127.49 1305.29 1127.42 1305.39 1127.35C1305.29 1127.42 1305.18 1127.49 1305.08 1127.56ZM1068.84 1126.1C1069.14 1126.31 1069.45 1126.52 1069.75 1126.73C1069.45 1126.52 1069.14 1126.31 1068.84 1126.1ZM1307.08 1126.18C1307.21 1126.09 1307.35 1126 1307.48 1125.91C1307.35 1126 1307.21 1126.09 1307.08 1126.18ZM1066.5 1124.45C1067.02 1124.82 1067.54 1125.19 1068.06 1125.55C1067.54 1125.19 1067.02 1124.82 1066.5 1124.45ZM1309.21 1124.69C1309.3 1124.62 1309.39 1124.56 1309.47 1124.5C1309.39 1124.56 1309.3 1124.62 1309.21 1124.69ZM1311.25 1123.21C1311.33 1123.15 1311.4 1123.1 1311.47 1123.05C1311.4 1123.1 1311.33 1123.15 1311.25 1123.21ZM1313.28 1121.71C1313.34 1121.66 1313.41 1121.61 1313.48 1121.56C1313.41 1121.61 1313.34 1121.66 1313.28 1121.71ZM1314.67 1120.65C1314.97 1120.43 1315.26 1120.2 1315.56 1119.97C1315.26 1120.2 1314.97 1120.43 1314.67 1120.65ZM1316.53 1119.21C1316.89 1118.94 1317.24 1118.66 1317.59 1118.38C1317.24 1118.66 1316.89 1118.94 1316.53 1119.21ZM1318.49 1117.66C1318.83 1117.39 1319.17 1117.12 1319.5 1116.85C1319.17 1117.12 1318.83 1117.39 1318.49 1117.66ZM1320.42 1116.1C1320.77 1115.81 1321.13 1115.52 1321.48 1115.23C1321.13 1115.52 1320.77 1115.81 1320.42 1116.1ZM1322.33 1114.51C1322.69 1114.21 1323.05 1113.91 1323.41 1113.61C1323.05 1113.91 1322.69 1114.21 1322.33 1114.51ZM1324.22 1112.91C1324.56 1112.61 1324.91 1112.31 1325.25 1112.02C1324.91 1112.31 1324.56 1112.61 1324.22 1112.91ZM1326.14 1111.23C1326.48 1110.93 1326.82 1110.63 1327.16 1110.33C1326.82 1110.63 1326.48 1110.93 1326.14 1111.23ZM1327.91 1109.65C1328.28 1109.31 1328.66 1108.97 1329.03 1108.63C1328.66 1108.97 1328.28 1109.31 1327.91 1109.65ZM1329.72 1108C1330.1 1107.65 1330.49 1107.29 1330.87 1106.93C1330.49 1107.29 1330.1 1107.65 1329.72 1108ZM1331.57 1106.27C1331.93 1105.93 1332.3 1105.58 1332.66 1105.23C1332.3 1105.58 1331.93 1105.93 1331.57 1106.27ZM1333.41 1104.51C1333.76 1104.17 1334.12 1103.82 1334.47 1103.47C1334.12 1103.82 1333.76 1104.17 1333.41 1104.51ZM1335.16 1102.79C1335.52 1102.43 1335.88 1102.07 1336.24 1101.71C1335.88 1102.07 1335.52 1102.43 1335.16 1102.79ZM1336.95 1101C1337.29 1100.65 1337.63 1100.3 1337.98 1099.94C1337.63 1100.3 1337.29 1100.65 1336.95 1101ZM1338.8 1099.09C1339.1 1098.77 1339.41 1098.46 1339.71 1098.14C1339.41 1098.46 1339.1 1098.77 1338.8 1099.09ZM1340.47 1097.33C1340.79 1096.98 1341.11 1096.64 1341.44 1096.29C1341.11 1096.64 1340.79 1096.98 1340.47 1097.33ZM1342.05 1095.61C1342.42 1095.22 1342.78 1094.82 1343.15 1094.42C1342.78 1094.82 1342.42 1095.22 1342.05 1095.61ZM1343.78 1093.71C1344.1 1093.35 1344.42 1092.99 1344.74 1092.63C1344.42 1092.99 1344.1 1093.35 1343.78 1093.71ZM1190.65 817.056C1114.72 815.609 1051.93 876.044 1050.49 951.977C1049.04 1027.91 1109.48 1090.69 1185.41 1092.14C1261.34 1093.59 1324.12 1033.15 1325.57 957.217C1327.02 881.284 1266.58 818.502 1190.65 817.056ZM1345.48 1091.78C1345.81 1091.4 1346.14 1091.02 1346.47 1090.64C1346.14 1091.02 1345.81 1091.4 1345.48 1091.78ZM1346.97 1090.05C1347.34 1089.62 1347.71 1089.19 1348.07 1088.75C1347.71 1089.19 1347.34 1089.62 1346.97 1090.05ZM1348.66 1088.05C1348.98 1087.66 1349.31 1087.27 1349.63 1086.87C1349.31 1087.27 1348.98 1087.66 1348.66 1088.05ZM1350.89 1085.33C1350.93 1085.28 1350.97 1085.22 1351.02 1085.17C1350.97 1085.22 1350.93 1085.28 1350.89 1085.33ZM1352.35 1083.49C1352.47 1083.34 1352.58 1083.2 1352.69 1083.05C1352.58 1083.2 1352.47 1083.34 1352.35 1083.49ZM1353.91 1081.48C1354.02 1081.34 1354.12 1081.2 1354.23 1081.06C1354.12 1081.2 1354.02 1081.34 1353.91 1081.48ZM1355.44 1079.45C1355.51 1079.37 1355.57 1079.28 1355.63 1079.2C1355.57 1079.28 1355.51 1079.37 1355.44 1079.45ZM1356.93 1077.43C1357.02 1077.32 1357.1 1077.2 1357.19 1077.08C1357.1 1077.2 1357.02 1077.32 1356.93 1077.43ZM1358.37 1075.44C1358.45 1075.32 1358.53 1075.21 1358.61 1075.09C1358.53 1075.21 1358.45 1075.32 1358.37 1075.44ZM1359.79 1073.42C1359.97 1073.15 1360.16 1072.88 1360.35 1072.61C1360.16 1072.88 1359.97 1073.15 1359.79 1073.42ZM1360.51 1072.37C1360.62 1072.21 1360.72 1072.05 1360.83 1071.89C1360.72 1072.05 1360.62 1072.21 1360.51 1072.37ZM1361.26 1071.26C1361.35 1071.13 1361.44 1070.99 1361.53 1070.86C1361.44 1070.99 1361.35 1071.13 1361.26 1071.26ZM1361.89 1070.32C1362.06 1070.07 1362.22 1069.82 1362.39 1069.57C1362.22 1069.82 1362.06 1070.07 1361.89 1070.32ZM1362.55 1069.32C1362.71 1069.08 1362.87 1068.84 1363.03 1068.59C1362.87 1068.84 1362.71 1069.08 1362.55 1069.32ZM1011.61 1066.37C1012.03 1067.05 1012.47 1067.72 1012.9 1068.39C1012.47 1067.72 1012.03 1067.05 1011.61 1066.37ZM1363.26 1068.25C1363.39 1068.04 1363.53 1067.83 1363.66 1067.62C1363.53 1067.83 1363.39 1068.04 1363.26 1068.25ZM1364.59 1066.17C1364.76 1065.89 1364.94 1065.62 1365.11 1065.34C1364.94 1065.62 1364.76 1065.89 1364.59 1066.17ZM1365.27 1065.08C1365.45 1064.8 1365.62 1064.52 1365.79 1064.25C1365.62 1064.52 1365.45 1064.8 1365.27 1065.08ZM1004.8 1054.83C1006.55 1058.02 1008.37 1061.16 1010.28 1064.25C1008.37 1061.16 1006.55 1058.02 1004.8 1054.83ZM1366.6 1062.93C1366.77 1062.65 1366.94 1062.36 1367.11 1062.08C1366.94 1062.36 1366.77 1062.65 1366.6 1062.93ZM1367.9 1060.75C1368.29 1060.1 1368.67 1059.45 1369.05 1058.8C1368.67 1059.45 1368.29 1060.1 1367.9 1060.75ZM1369.2 1058.53C1369.32 1058.32 1369.44 1058.11 1369.56 1057.89C1369.44 1058.11 1369.32 1058.32 1369.2 1058.53ZM1371.02 1055.29C1372.2 1053.15 1373.35 1050.98 1374.46 1048.79C1373.35 1050.98 1372.2 1053.15 1371.02 1055.29ZM1375.11 1047.49C1375.26 1047.19 1375.41 1046.88 1375.56 1046.58C1375.41 1046.88 1375.26 1047.19 1375.11 1047.49ZM1375.67 1046.36C1375.79 1046.11 1375.91 1045.86 1376.03 1045.61C1375.91 1045.86 1375.79 1046.11 1375.67 1046.36ZM1377.33 1042.89C1377.48 1042.56 1377.64 1042.23 1377.79 1041.89C1377.64 1042.23 1377.48 1042.56 1377.33 1042.89ZM1377.86 1041.75C1377.96 1041.52 1378.06 1041.3 1378.17 1041.07C1378.06 1041.3 1377.96 1041.52 1377.86 1041.75ZM1378.39 1040.58C1378.49 1040.37 1378.58 1040.15 1378.68 1039.93C1378.58 1040.15 1378.49 1040.37 1378.39 1040.58ZM1379.74 1037.52C1379.47 1038.14 1379.2 1038.76 1378.93 1039.38C1379.2 1038.76 1379.47 1038.14 1379.74 1037.52ZM995.832 1036.34C996.175 1037.15 996.523 1037.95 996.876 1038.75C996.523 1037.95 996.175 1037.15 995.832 1036.34ZM1381.87 1032.42C1382.01 1032.08 1382.14 1031.74 1382.28 1031.39C1382.14 1031.74 1382.01 1032.08 1381.87 1032.42ZM1382.38 1031.15C1382.5 1030.83 1382.63 1030.51 1382.75 1030.19C1382.63 1030.51 1382.5 1030.83 1382.38 1031.15ZM1383.61 1027.94C1383.34 1028.66 1383.06 1029.38 1382.79 1030.1C1383.06 1029.38 1383.34 1028.66 1383.61 1027.94ZM1385.03 1024.03C1385.11 1023.79 1385.2 1023.55 1385.28 1023.31C1385.2 1023.55 1385.11 1023.79 1385.03 1024.03ZM1385.86 1021.63C1385.98 1021.28 1386.1 1020.93 1386.21 1020.57C1386.1 1020.93 1385.98 1021.28 1385.86 1021.63ZM990.102 1021.29C990.26 1021.76 990.418 1022.23 990.58 1022.7C990.418 1022.23 990.26 1021.76 990.102 1021.29ZM1386.92 1018.39C1386.71 1019.07 1386.49 1019.73 1386.27 1020.4C1386.49 1019.73 1386.71 1019.07 1386.92 1018.39ZM1388.06 1014.73C1387.74 1015.8 1387.41 1016.86 1387.08 1017.92C1387.41 1016.86 1387.74 1015.8 1388.06 1014.73ZM1389.27 1010.54C1389.34 1010.28 1389.41 1010.03 1389.48 1009.78C1389.41 1010.03 1389.34 1010.28 1389.27 1010.54ZM1389.94 1008.06C1390 1007.82 1390.07 1007.58 1390.13 1007.34C1390.07 1007.58 1390 1007.82 1389.94 1008.06ZM1391.41 1002.12C1391.24 1002.85 1391.07 1003.58 1390.89 1004.3C1391.07 1003.58 1391.24 1002.85 1391.41 1002.12ZM1393.22 993.538C1392.72 996.153 1392.18 998.751 1391.6 1001.33C1392.18 998.751 1392.72 996.153 1393.22 993.538ZM1393.59 991.527C1393.64 991.244 1393.69 990.961 1393.74 990.678C1393.69 990.961 1393.64 991.244 1393.59 991.527ZM1396.39 968.505C1395.93 975.444 1395.14 982.288 1394.02 989.02C1395.14 982.288 1395.93 975.444 1396.39 968.505ZM1331.45 972.835C1331.48 972.544 1331.52 972.253 1331.56 971.962C1331.52 972.253 1331.48 972.544 1331.45 972.835ZM1044.29 970.149C1044.26 969.859 1044.23 969.569 1044.2 969.278C1044.23 969.569 1044.26 969.859 1044.29 970.149ZM1332.11 966.517C1332.1 966.55 1332.1 966.584 1332.1 966.617C1332.1 966.584 1332.1 966.55 1332.11 966.517ZM1332.24 964.749C1332.28 964.13 1332.32 963.509 1332.36 962.888C1332.32 963.509 1332.28 964.13 1332.24 964.749ZM1396.68 962.968C1396.66 963.573 1396.63 964.178 1396.6 964.782C1396.63 964.178 1396.66 963.573 1396.68 962.968ZM1332.52 959.217C1332.5 959.931 1332.47 960.645 1332.44 961.356C1332.47 960.645 1332.5 959.931 1332.52 959.217ZM1332.36 946.226C1332.43 947.45 1332.48 948.679 1332.52 949.911C1332.48 948.678 1332.43 947.449 1332.36 946.225V946.226ZM1043.81 944.463C1043.77 945.076 1043.73 945.69 1043.7 946.306C1043.73 945.69 1043.77 945.076 1043.81 944.463ZM1331.94 940.741C1332.06 941.953 1332.16 943.17 1332.24 944.391L1332.1 942.562C1332.05 941.954 1332 941.347 1331.94 940.74V940.741ZM1331.55 937.116L1331.55 937.115L1331.55 937.116ZM979.979 936.611C980.036 935.952 980.095 935.294 980.157 934.637C980.095 935.294 980.036 935.952 979.979 936.611ZM980.292 933.258C980.283 933.344 980.275 933.431 980.267 933.518C980.275 933.431 980.283 933.344 980.292 933.258ZM980.428 931.965C980.711 929.339 981.043 926.728 981.422 924.133C981.043 926.728 980.711 929.339 980.428 931.965ZM981.615 922.835C981.597 922.953 981.58 923.071 981.562 923.189C981.58 923.071 981.597 922.953 981.615 922.835ZM1328.28 919.414C1327.56 916.528 1326.75 913.675 1325.85 910.859C1326.75 913.675 1327.56 916.528 1328.28 919.414ZM982.467 917.686C982.435 917.863 982.404 918.04 982.373 918.217C982.404 918.04 982.435 917.863 982.467 917.686ZM983.73 911.19C983.638 911.627 983.548 912.065 983.458 912.503C983.548 912.065 983.638 911.627 983.73 911.19ZM984.244 908.826C984.232 908.882 984.22 908.939 984.207 908.995C984.22 908.939 984.232 908.882 984.244 908.826ZM984.546 907.494C984.511 907.644 984.478 907.794 984.444 907.943C984.478 907.794 984.511 907.644 984.546 907.494ZM984.835 906.264C984.807 906.38 984.779 906.497 984.752 906.614C984.779 906.497 984.807 906.38 984.835 906.264ZM1321.61 899.256C1322.29 900.88 1322.93 902.519 1323.55 904.172C1322.93 902.519 1322.29 900.88 1321.61 899.256ZM985.444 903.755C985.405 903.911 985.367 904.067 985.328 904.224C985.367 904.067 985.405 903.911 985.444 903.755ZM985.771 902.464C985.723 902.649 985.677 902.835 985.63 903.02C985.677 902.835 985.723 902.649 985.771 902.464ZM986.101 901.196C986.053 901.376 986.007 901.557 985.96 901.737C986.007 901.557 986.053 901.376 986.101 901.196ZM986.417 900.015C986.383 900.141 986.348 900.268 986.314 900.394C986.348 900.268 986.383 900.141 986.417 900.015ZM987.134 897.423C987.082 897.605 987.032 897.787 986.98 897.969C987.032 897.787 987.082 897.605 987.134 897.423ZM987.462 896.276C987.401 896.485 987.342 896.694 987.282 896.903C987.342 896.694 987.401 896.485 987.462 896.276ZM1319.5 894.427V894.428V894.427ZM987.816 895.07C987.784 895.179 987.753 895.287 987.721 895.395C987.753 895.287 987.784 895.179 987.816 895.07ZM988.194 893.81C988.154 893.942 988.115 894.075 988.075 894.207C988.115 894.075 988.154 893.942 988.194 893.81ZM988.594 892.507C988.511 892.774 988.429 893.042 988.347 893.31C988.429 893.042 988.511 892.774 988.594 892.507ZM988.957 891.353C988.882 891.591 988.806 891.829 988.731 892.067C988.806 891.829 988.882 891.591 988.957 891.353ZM1317.23 889.691V889.692V889.691ZM989.75 888.903C989.709 889.027 989.669 889.151 989.628 889.275C989.669 889.151 989.709 889.027 989.75 888.903ZM990.157 887.686C990.083 887.907 990.009 888.127 989.936 888.348C990.009 888.127 990.083 887.907 990.157 887.686ZM990.612 886.354C990.512 886.645 990.412 886.935 990.313 887.226C990.412 886.935 990.512 886.645 990.612 886.354ZM990.978 885.305C990.902 885.52 990.827 885.735 990.752 885.951C990.827 885.735 990.902 885.52 990.978 885.305ZM991.447 883.983C991.373 884.191 991.298 884.399 991.224 884.607C991.298 884.399 991.373 884.191 991.447 883.983ZM1299.11 862.1C1299.86 862.988 1300.59 863.886 1301.3 864.793C1301.66 865.246 1302.02 865.702 1302.38 866.159C1303.79 867.99 1305.17 869.854 1306.5 871.753C1307.16 872.702 1307.82 873.659 1308.46 874.625C1309.1 875.591 1309.73 876.564 1310.35 877.546C1310.66 878.036 1310.97 878.529 1311.27 879.023C1312.19 880.508 1313.07 882.009 1313.93 883.528L1313.06 882.015C1308.68 874.478 1303.63 867.371 1298 860.773L1299.11 862.1ZM991.8 883.01C991.766 883.104 991.731 883.198 991.697 883.292C991.731 883.198 991.766 883.104 991.8 883.01ZM992.257 881.768C992.212 881.889 992.166 882.01 992.121 882.131C992.166 882.01 992.212 881.889 992.257 881.768ZM992.728 880.514C992.66 880.692 992.593 880.87 992.525 881.049C992.593 880.87 992.66 880.692 992.728 880.514ZM993.195 879.292C993.123 879.479 993.051 879.665 992.979 879.852C993.051 879.665 993.123 879.479 993.195 879.292ZM993.634 878.167C993.566 878.339 993.499 878.511 993.432 878.684C993.499 878.511 993.566 878.339 993.634 878.167ZM994.284 876.531C994.148 876.869 994.014 877.207 993.88 877.545C994.014 877.207 994.148 876.869 994.284 876.531ZM995.151 874.416C995.033 874.702 994.913 874.987 994.796 875.273C994.913 874.987 995.033 874.702 995.151 874.416ZM995.579 873.393C995.497 873.587 995.416 873.782 995.335 873.977C995.416 873.782 995.497 873.587 995.579 873.393ZM996.054 872.276C995.972 872.468 995.891 872.66 995.81 872.852C995.891 872.66 995.972 872.468 996.054 872.276ZM996.552 871.128C996.496 871.256 996.44 871.384 996.385 871.512C996.44 871.384 996.496 871.256 996.552 871.128ZM997.04 870.017C996.985 870.142 996.929 870.266 996.874 870.392C996.929 870.266 996.985 870.142 997.04 870.017ZM997.531 868.918C997.487 869.017 997.442 869.116 997.397 869.216C997.442 869.116 997.487 869.017 997.531 868.918ZM998.104 867.656C998.05 867.774 997.996 867.892 997.942 868.01C997.996 867.892 998.05 867.774 998.104 867.656ZM998.636 866.507C998.569 866.649 998.503 866.792 998.437 866.935C998.503 866.792 998.569 866.649 998.636 866.507ZM999.298 865.098C999.173 865.361 999.047 865.625 998.923 865.89C999.047 865.625 999.173 865.361 999.298 865.098ZM999.79 864.068C999.674 864.309 999.558 864.55 999.443 864.792C999.558 864.55 999.674 864.309 999.79 864.068ZM1000.21 863.205C1000.15 863.317 1000.1 863.43 1000.04 863.542C1000.1 863.43 1000.15 863.317 1000.21 863.205ZM1001.46 860.669C1001.34 860.911 1001.22 861.154 1001.1 861.396C1001.22 861.154 1001.34 860.911 1001.46 860.669ZM1002.08 859.461C1001.95 859.703 1001.83 859.946 1001.71 860.189C1001.83 859.946 1001.95 859.703 1002.08 859.461ZM1288.5 850.666C1289.33 851.47 1290.15 852.284 1290.96 853.107C1291.77 853.931 1292.57 854.764 1293.37 855.606C1294.55 856.87 1295.72 858.155 1296.86 859.461L1295.71 858.162C1293.4 855.578 1290.99 853.078 1288.5 850.666ZM1002.59 858.477C1002.48 858.681 1002.37 858.885 1002.27 859.09C1002.37 858.885 1002.48 858.681 1002.59 858.477ZM1003.13 857.447C1003.06 857.57 1003 857.692 1002.93 857.814C1003 857.692 1003.06 857.57 1003.13 857.447ZM1003.72 856.333C1003.63 856.485 1003.55 856.636 1003.47 856.788C1003.55 856.636 1003.63 856.485 1003.72 856.333ZM1004.35 855.151C1004.25 855.333 1004.15 855.516 1004.06 855.698C1004.15 855.516 1004.25 855.333 1004.35 855.151ZM1004.91 854.13C1004.83 854.272 1004.75 854.415 1004.67 854.558C1004.75 854.415 1004.83 854.272 1004.91 854.13ZM1006.17 851.879C1006.04 852.093 1005.92 852.308 1005.8 852.522C1005.92 852.308 1006.04 852.093 1006.17 851.879ZM1086.54 851.665C1086.47 851.736 1086.4 851.808 1086.33 851.879C1086.4 851.802 1086.48 851.723 1086.56 851.646L1086.54 851.665ZM1006.77 850.817C1006.69 850.952 1006.62 851.087 1006.54 851.222C1006.62 851.087 1006.69 850.952 1006.77 850.817ZM1089.02 849.276C1089.85 848.494 1090.69 847.722 1091.54 846.959C1090.69 847.722 1089.85 848.494 1089.02 849.276ZM1007.47 849.606C1007.35 849.818 1007.22 850.029 1007.1 850.241C1007.22 850.029 1007.35 849.818 1007.47 849.606ZM1007.97 848.751C1007.91 848.858 1007.84 848.965 1007.78 849.071C1007.84 848.965 1007.91 848.858 1007.97 848.751ZM1280.76 843.701C1281.65 844.444 1282.52 845.198 1283.39 845.962C1283.83 846.344 1284.26 846.728 1284.69 847.115L1284.69 847.114C1283.4 845.953 1282.09 844.816 1280.76 843.701ZM1008.68 847.559C1008.59 847.712 1008.5 847.864 1008.4 848.018C1008.5 847.864 1008.59 847.712 1008.68 847.559ZM1009.17 846.739C1009.13 846.797 1009.1 846.856 1009.07 846.914C1009.1 846.856 1009.13 846.797 1009.17 846.739ZM1010.47 844.614C1010.44 844.668 1010.4 844.721 1010.37 844.775C1010.4 844.721 1010.44 844.668 1010.47 844.614ZM1011.81 842.486C1011.79 842.522 1011.76 842.558 1011.74 842.594C1011.76 842.558 1011.79 842.522 1011.81 842.486ZM1013.15 840.416C1013.12 840.459 1013.09 840.502 1013.06 840.546C1013.09 840.502 1013.12 840.459 1013.15 840.416ZM1273.93 838.325C1274.87 839.015 1275.79 839.716 1276.7 840.428C1275.79 839.716 1274.87 839.015 1273.93 838.325ZM1014.53 838.325C1014.5 838.368 1014.48 838.41 1014.45 838.452C1014.48 838.41 1014.5 838.368 1014.53 838.325ZM1265.32 832.417C1266.3 833.04 1267.28 833.674 1268.24 834.319C1268.72 834.642 1269.2 834.967 1269.68 835.296V835.295C1267.77 833.982 1265.82 832.713 1263.84 831.491L1265.32 832.417ZM1017.37 834.201C1017.35 834.24 1017.32 834.279 1017.29 834.318C1017.32 834.279 1017.35 834.24 1017.37 834.201ZM1260.85 829.692C1258.84 828.517 1256.79 827.389 1254.72 826.31C1256.28 827.119 1257.81 827.956 1259.33 828.82C1259.84 829.108 1260.34 829.399 1260.85 829.693L1260.85 829.692ZM1023.32 826.195C1023.29 826.237 1023.26 826.279 1023.22 826.321C1023.26 826.279 1023.29 826.237 1023.32 826.195ZM1024.92 824.18C1024.86 824.254 1024.8 824.328 1024.74 824.403C1024.8 824.328 1024.86 824.254 1024.92 824.18ZM1027.23 821.341C1026.92 821.714 1026.61 822.087 1026.31 822.463C1026.61 822.087 1026.92 821.714 1027.23 821.341ZM1028.38 819.969C1028.22 820.159 1028.06 820.347 1027.9 820.538C1028.06 820.347 1028.22 820.159 1028.38 819.969ZM1240.3 819.776C1239.75 819.563 1239.2 819.354 1238.65 819.147C1239.75 819.561 1240.85 819.987 1241.95 820.427L1240.3 819.776ZM1185.97 810.046C1186.95 810.032 1187.93 810.027 1188.92 810.033L1190.78 810.057C1198.26 810.199 1205.6 810.908 1212.76 812.142C1213.95 812.347 1215.14 812.568 1216.32 812.803C1217.5 813.037 1218.68 813.286 1219.85 813.549C1220.43 813.68 1221.02 813.816 1221.6 813.955C1223.93 814.51 1226.24 815.12 1228.53 815.786C1229.1 815.953 1229.67 816.123 1230.24 816.296C1231.37 816.642 1232.51 817.002 1233.63 817.376L1231.94 816.825C1218.93 812.684 1205.12 810.33 1190.78 810.057C1189.17 810.026 1187.57 810.024 1185.97 810.046ZM1034.37 813.178C1033.84 813.752 1033.31 814.329 1032.79 814.91C1033.31 814.329 1033.84 813.752 1034.37 813.178ZM1035.68 811.77C1035.28 812.193 1034.89 812.615 1034.49 813.04C1034.89 812.615 1035.28 812.193 1035.68 811.77ZM1185.23 810.055C1184.19 810.074 1183.14 810.107 1182.1 810.149C1183.14 810.107 1184.19 810.074 1185.23 810.055ZM1047.87 799.792C1047.42 800.196 1046.98 800.602 1046.53 801.011C1046.98 800.602 1047.42 800.196 1047.87 799.792ZM1050.53 797.422C1050.24 797.67 1049.96 797.921 1049.68 798.171C1049.98 797.904 1050.28 797.635 1050.58 797.37L1050.53 797.422ZM1054.34 794.166C1054.25 794.241 1054.16 794.317 1054.07 794.393C1054.16 794.317 1054.25 794.241 1054.34 794.166ZM1056.32 792.535C1055.92 792.857 1055.53 793.182 1055.13 793.507C1055.53 793.182 1055.92 792.857 1056.32 792.535ZM1060.18 789.467C1059.84 789.73 1059.5 789.996 1059.17 790.262C1059.5 789.996 1059.84 789.73 1060.18 789.467ZM1062.17 787.942C1061.85 788.188 1061.53 788.436 1061.2 788.684C1061.53 788.436 1061.85 788.188 1062.17 787.942ZM1064.16 786.455C1064.09 786.509 1064.01 786.564 1063.94 786.618C1064.01 786.564 1064.09 786.509 1064.16 786.455ZM1068.2 783.549C1068.13 783.596 1068.07 783.643 1068 783.69C1068.07 783.643 1068.13 783.596 1068.2 783.549ZM1070.27 782.117C1070.2 782.163 1070.13 782.21 1070.07 782.256C1070.13 782.21 1070.2 782.163 1070.27 782.117ZM1072.34 780.72C1072.25 780.78 1072.16 780.84 1072.07 780.9C1072.16 780.84 1072.25 780.78 1072.34 780.72ZM1074.43 779.345C1074.34 779.403 1074.25 779.462 1074.16 779.52C1074.25 779.462 1074.34 779.403 1074.43 779.345ZM1076.54 777.989C1076.43 778.058 1076.32 778.127 1076.22 778.196C1076.32 778.127 1076.43 778.058 1076.54 777.989ZM1078.65 776.676C1078.56 776.73 1078.47 776.785 1078.38 776.84C1078.47 776.785 1078.56 776.73 1078.65 776.676ZM1080.88 775.322C1080.7 775.427 1080.52 775.534 1080.35 775.64C1080.52 775.534 1080.7 775.427 1080.88 775.322ZM1082.97 774.087C1082.84 774.158 1082.72 774.231 1082.6 774.303C1082.72 774.231 1082.84 774.158 1082.97 774.087ZM1085.12 772.847C1085 772.913 1084.89 772.98 1084.77 773.046C1084.89 772.98 1085 772.913 1085.12 772.847ZM1087.29 771.634C1087.21 771.677 1087.13 771.72 1087.05 771.764C1087.13 771.72 1087.21 771.677 1087.29 771.634ZM1088.57 770.933C1088.36 771.046 1088.15 771.16 1087.95 771.273C1088.15 771.16 1088.36 771.046 1088.57 770.933ZM1089.58 770.387C1089.33 770.521 1089.08 770.655 1088.83 770.79C1089.08 770.655 1089.33 770.521 1089.58 770.387ZM1090.64 769.827C1090.47 769.916 1090.3 770.006 1090.13 770.096C1090.3 770.006 1090.47 769.916 1090.64 769.827ZM1091.74 769.25C1091.6 769.322 1091.46 769.395 1091.32 769.468C1091.46 769.395 1091.6 769.322 1091.74 769.25ZM1092.9 768.647C1092.73 768.736 1092.56 768.827 1092.38 768.916C1092.56 768.827 1092.73 768.736 1092.9 768.647ZM1093.99 768.092C1093.83 768.174 1093.67 768.257 1093.51 768.339C1093.67 768.257 1093.83 768.174 1093.99 768.092ZM1095.49 767.342C1095.17 767.501 1094.85 767.662 1094.53 767.823C1094.85 767.662 1095.17 767.501 1095.49 767.342ZM1097.41 766.405C1097.17 766.522 1096.93 766.638 1096.69 766.756C1096.93 766.638 1097.17 766.522 1097.41 766.405ZM1098.86 765.715C1098.57 765.851 1098.28 765.987 1098 766.124C1098.28 765.987 1098.57 765.851 1098.86 765.715ZM1100.68 764.864C1100.54 764.929 1100.4 764.994 1100.26 765.059C1100.4 764.994 1100.54 764.929 1100.68 764.864ZM1103.1 763.768C1102.97 763.826 1102.84 763.883 1102.71 763.94C1102.84 763.883 1102.97 763.826 1103.1 763.768ZM1104.32 763.228C1104.11 763.319 1103.9 763.41 1103.7 763.501C1103.9 763.41 1104.11 763.319 1104.32 763.228ZM1105.49 762.721C1105.27 762.813 1105.06 762.906 1104.84 762.999C1105.06 762.906 1105.27 762.813 1105.49 762.721ZM1106.6 762.247C1106.42 762.323 1106.24 762.4 1106.06 762.476C1106.24 762.4 1106.42 762.323 1106.6 762.247ZM1107.83 761.726C1107.61 761.821 1107.38 761.916 1107.16 762.011C1107.38 761.916 1107.61 761.821 1107.83 761.726ZM1108.85 761.309C1108.71 761.364 1108.57 761.42 1108.44 761.476C1108.57 761.42 1108.71 761.364 1108.85 761.309ZM1110.13 760.788C1109.93 760.867 1109.73 760.946 1109.54 761.025C1109.73 760.946 1109.93 760.867 1110.13 760.788ZM1111.48 760.249C1111.23 760.348 1110.98 760.448 1110.73 760.548C1110.98 760.448 1111.23 760.348 1111.48 760.249ZM1112.61 759.808C1112.3 759.928 1111.99 760.049 1111.68 760.171C1111.99 760.049 1112.3 759.928 1112.61 759.808ZM1113.7 759.387C1113.46 759.478 1113.23 759.569 1112.99 759.661C1113.23 759.569 1113.46 759.478 1113.7 759.387ZM1114.82 758.965C1114.63 759.036 1114.44 759.107 1114.25 759.179C1114.44 759.107 1114.63 759.036 1114.82 758.965ZM1115.98 758.535C1115.81 758.597 1115.64 758.659 1115.48 758.721C1115.64 758.659 1115.81 758.597 1115.98 758.535ZM1117.29 758.06C1117.08 758.133 1116.88 758.207 1116.67 758.281C1116.88 758.207 1117.08 758.133 1117.29 758.06ZM1118.52 757.621C1118.26 757.712 1118 757.804 1117.74 757.896C1118 757.804 1118.26 757.712 1118.52 757.621ZM1119.57 757.253C1119.38 757.318 1119.2 757.383 1119.01 757.448C1119.2 757.383 1119.38 757.318 1119.57 757.253ZM1120.83 756.818C1120.66 756.876 1120.49 756.935 1120.32 756.993C1120.49 756.935 1120.66 756.876 1120.83 756.818ZM1122.27 756.338C1121.95 756.444 1121.63 756.551 1121.31 756.658C1121.63 756.551 1121.95 756.444 1122.27 756.338ZM1123.35 755.982C1123.07 756.073 1122.8 756.163 1122.52 756.255C1122.8 756.163 1123.07 756.073 1123.35 755.982ZM1124.68 755.553C1124.38 755.649 1124.08 755.747 1123.77 755.845C1124.08 755.747 1124.38 755.649 1124.68 755.553ZM1125.95 755.153C1125.61 755.261 1125.26 755.371 1124.91 755.48C1125.26 755.371 1125.61 755.261 1125.95 755.153ZM1127.15 754.786C1126.8 754.892 1126.45 754.999 1126.1 755.106C1126.45 754.999 1126.8 754.892 1127.15 754.786ZM1128.18 754.476C1127.92 754.552 1127.67 754.629 1127.41 754.706C1127.67 754.629 1127.92 754.552 1128.18 754.476ZM1129.49 754.088C1129.22 754.166 1128.95 754.244 1128.69 754.324C1128.95 754.244 1129.22 754.166 1129.49 754.088ZM1130.53 753.789C1130.32 753.849 1130.11 753.908 1129.9 753.969C1130.11 753.908 1130.32 753.849 1130.53 753.789ZM1131.64 753.474C1131.52 753.506 1131.41 753.54 1131.29 753.573C1131.41 753.54 1131.52 753.506 1131.64 753.474ZM1133.22 753.04C1132.96 753.109 1132.71 753.178 1132.45 753.248C1132.71 753.178 1132.96 753.109 1133.22 753.04ZM1134.53 752.688C1134.21 752.773 1133.88 752.859 1133.56 752.945C1133.88 752.859 1134.21 752.773 1134.53 752.688ZM1135.8 752.355C1135.46 752.445 1135.11 752.535 1134.76 752.626C1135.11 752.535 1135.46 752.445 1135.8 752.355ZM1136.8 752.101C1136.54 752.168 1136.28 752.234 1136.01 752.302C1136.28 752.234 1136.54 752.168 1136.8 752.101ZM1138.23 751.748C1137.96 751.813 1137.69 751.878 1137.43 751.944C1137.69 751.878 1137.96 751.813 1138.23 751.748ZM1139.56 751.427C1139.2 751.511 1138.85 751.595 1138.5 751.681C1138.85 751.595 1139.2 751.511 1139.56 751.427ZM1140.68 751.163C1140.37 751.233 1140.07 751.304 1139.77 751.376C1140.07 751.304 1140.37 751.233 1140.68 751.163ZM1141.71 750.929C1141.51 750.973 1141.31 751.017 1141.11 751.062C1141.31 751.017 1141.51 750.973 1141.71 750.929ZM1142.97 750.645C1142.8 750.683 1142.63 750.721 1142.46 750.759C1142.63 750.721 1142.8 750.683 1142.97 750.645ZM1144.39 750.338C1144.15 750.39 1143.91 750.442 1143.66 750.495C1143.91 750.442 1144.15 750.39 1144.39 750.338ZM1145.6 750.084C1145.35 750.136 1145.1 750.188 1144.85 750.241C1145.1 750.188 1145.35 750.136 1145.6 750.084ZM1146.63 749.876C1146.5 749.901 1146.38 749.925 1146.25 749.95C1146.38 749.925 1146.5 749.901 1146.63 749.876ZM1147.98 749.607C1147.82 749.639 1147.65 749.671 1147.49 749.703C1147.65 749.671 1147.82 749.639 1147.98 749.607ZM1149.21 749.373C1149.06 749.4 1148.92 749.427 1148.77 749.455C1148.92 749.427 1149.06 749.4 1149.21 749.373ZM1150.57 749.122C1150.4 749.153 1150.23 749.183 1150.06 749.215C1150.23 749.183 1150.4 749.153 1150.57 749.122ZM1152.04 748.861C1151.77 748.908 1151.5 748.956 1151.23 749.004C1151.5 748.956 1151.77 748.908 1152.04 748.861ZM1153.53 748.608C1153.2 748.663 1152.87 748.719 1152.54 748.775C1152.87 748.719 1153.2 748.663 1153.53 748.608ZM1154.61 748.431C1154.32 748.478 1154.03 748.525 1153.74 748.573C1154.03 748.525 1154.32 748.478 1154.61 748.431ZM1155.72 748.257C1155.53 748.287 1155.33 748.316 1155.14 748.347C1155.33 748.316 1155.53 748.287 1155.72 748.257ZM1157.22 748.029C1156.94 748.07 1156.66 748.111 1156.39 748.153C1156.66 748.111 1156.94 748.07 1157.22 748.029ZM1158.73 747.811C1158.36 747.863 1158 747.915 1157.63 747.968C1158 747.915 1158.36 747.863 1158.73 747.811ZM1159.84 747.659C1159.52 747.701 1159.21 747.743 1158.9 747.787C1159.21 747.743 1159.52 747.701 1159.84 747.659ZM1161.12 747.49C1160.82 747.528 1160.53 747.566 1160.23 747.605C1160.53 747.566 1160.82 747.528 1161.12 747.49ZM1162.51 747.315C1162.97 747.259 1163.43 747.205 1163.89 747.152C1163.43 747.205 1162.97 747.259 1162.51 747.315ZM1164.8 747.051C1164.57 747.076 1164.35 747.1 1164.12 747.126C1164.35 747.1 1164.57 747.076 1164.8 747.051ZM1165.94 746.928C1165.8 746.942 1165.67 746.955 1165.53 746.97C1165.67 746.955 1165.8 746.942 1165.94 746.928ZM1167.51 746.768C1167.27 746.792 1167.03 746.815 1166.79 746.839C1167.03 746.815 1167.27 746.792 1167.51 746.768ZM1168.92 746.636C1168.63 746.661 1168.35 746.688 1168.07 746.715C1168.35 746.688 1168.63 746.661 1168.92 746.636ZM1170.25 746.519C1169.96 746.544 1169.67 746.569 1169.37 746.595C1169.67 746.569 1169.96 746.544 1170.25 746.519ZM1171.44 746.423C1171.88 746.388 1172.33 746.354 1172.78 746.322C1172.33 746.354 1171.88 746.388 1171.44 746.423ZM1175.65 746.135C1175.98 746.115 1176.31 746.098 1176.64 746.08C1176.31 746.098 1175.98 746.115 1175.65 746.135ZM1180.82 745.897C1179.68 745.936 1178.55 745.983 1177.42 746.039C1178.55 745.983 1179.68 745.936 1180.82 745.897ZM1184.2 745.81C1184.12 745.812 1184.04 745.813 1183.96 745.814C1184.04 745.813 1184.12 745.812 1184.2 745.81ZM1187.97 745.777C1188.86 745.777 1189.76 745.783 1190.66 745.795C1189.76 745.783 1188.86 745.777 1187.97 745.777ZM927.615 1249.11C927.803 1248.99 927.988 1248.86 928.174 1248.73C927.988 1248.86 927.803 1248.99 927.615 1249.11ZM928.943 1248.17C929.132 1248.03 929.319 1247.89 929.506 1247.75C929.319 1247.89 929.132 1248.03 928.943 1248.17ZM1241.48 1156.52C1241.86 1156.42 1242.23 1156.32 1242.6 1156.22C1242.23 1156.32 1241.86 1156.42 1241.48 1156.52ZM1246.46 1155.14C1246.82 1155.03 1247.18 1154.92 1247.54 1154.82C1247.18 1154.92 1246.82 1155.03 1246.46 1155.14ZM1247.85 1154.73C1248.16 1154.63 1248.47 1154.54 1248.77 1154.45C1248.47 1154.54 1248.16 1154.63 1247.85 1154.73ZM1262.12 1149.89C1262.49 1149.75 1262.85 1149.61 1263.22 1149.47C1262.85 1149.61 1262.49 1149.75 1262.12 1149.89ZM1272.67 1145.55C1273 1145.41 1273.33 1145.26 1273.65 1145.11C1273.33 1145.26 1273 1145.41 1272.67 1145.55ZM1276.37 1143.87C1276.67 1143.73 1276.96 1143.59 1277.25 1143.45C1276.96 1143.59 1276.67 1143.73 1276.37 1143.87ZM1284.34 1139.93C1284.61 1139.79 1284.88 1139.65 1285.15 1139.51C1284.88 1139.65 1284.61 1139.79 1284.34 1139.93ZM1285.47 1139.34C1285.73 1139.2 1286 1139.06 1286.26 1138.92C1286 1139.06 1285.73 1139.2 1285.47 1139.34ZM1297.41 1132.52C1297.7 1132.34 1297.98 1132.16 1298.27 1131.98C1297.98 1132.16 1297.7 1132.34 1297.41 1132.52ZM1065.26 1123.55C1065.67 1123.85 1066.08 1124.15 1066.5 1124.45C1066.08 1124.15 1065.67 1123.85 1065.26 1123.55ZM1363.96 1067.16C1364.14 1066.88 1364.31 1066.6 1364.49 1066.32C1364.31 1066.6 1364.14 1066.88 1363.96 1067.16ZM1365.97 1063.96C1366.12 1063.72 1366.26 1063.48 1366.41 1063.24C1366.26 1063.48 1366.12 1063.72 1365.97 1063.96ZM1367.29 1061.78C1367.42 1061.57 1367.55 1061.35 1367.68 1061.13C1367.55 1061.35 1367.42 1061.57 1367.29 1061.78ZM1369.79 1057.49C1369.96 1057.2 1370.12 1056.91 1370.28 1056.62C1370.12 1056.91 1369.96 1057.2 1369.79 1057.49ZM1370.42 1056.38C1370.58 1056.09 1370.74 1055.8 1370.9 1055.51C1370.74 1055.8 1370.58 1056.09 1370.42 1056.38ZM1374.57 1048.57C1374.69 1048.32 1374.82 1048.07 1374.94 1047.82C1374.82 1048.07 1374.69 1048.32 1374.57 1048.57ZM1376.24 1045.18C1376.38 1044.9 1376.51 1044.61 1376.65 1044.33C1376.51 1044.61 1376.38 1044.9 1376.24 1045.18ZM1376.8 1044.02C1376.95 1043.7 1377.09 1043.39 1377.24 1043.08C1377.09 1043.39 1376.95 1043.7 1376.8 1044.02ZM1380.42 1035.95C1380.53 1035.67 1380.65 1035.39 1380.77 1035.11C1380.65 1035.39 1380.53 1035.67 1380.42 1035.95ZM1380.91 1034.78C1381.04 1034.45 1381.18 1034.12 1381.32 1033.79C1381.18 1034.12 1381.04 1034.45 1380.91 1034.78ZM1381.41 1033.57C1381.54 1033.23 1381.68 1032.9 1381.81 1032.57C1381.68 1032.9 1381.54 1033.23 1381.41 1033.57ZM1384.13 1026.53C1384.26 1026.18 1384.39 1025.83 1384.51 1025.48C1384.39 1025.83 1384.26 1026.18 1384.13 1026.53ZM1385.45 1022.84C1385.54 1022.57 1385.63 1022.3 1385.72 1022.03C1385.63 1022.3 1385.54 1022.57 1385.45 1022.84ZM1388.18 1014.33C1388.3 1013.94 1388.41 1013.55 1388.52 1013.17C1388.41 1013.55 1388.3 1013.94 1388.18 1014.33ZM1388.57 1012.99C1388.67 1012.66 1388.76 1012.33 1388.86 1012C1388.76 1012.33 1388.67 1012.66 1388.57 1012.99ZM1388.92 1011.8C1389.01 1011.46 1389.11 1011.12 1389.2 1010.78C1389.11 1011.12 1389.01 1011.46 1388.92 1011.8ZM1393.34 992.893C1393.39 992.617 1393.44 992.342 1393.49 992.066C1393.44 992.342 1393.39 992.617 1393.34 992.893ZM1396.42 967.961C1396.44 967.768 1396.45 967.574 1396.46 967.381C1396.45 967.574 1396.44 967.768 1396.42 967.961ZM1330.01 981.893C1330.07 981.587 1330.13 981.281 1330.19 980.974C1330.13 981.281 1330.07 981.587 1330.01 981.893ZM1331.21 974.654C1331.25 974.38 1331.28 974.106 1331.32 973.832C1331.28 974.106 1331.25 974.38 1331.21 974.654ZM1331.6 971.555C1331.66 971.106 1331.71 970.657 1331.76 970.207C1331.71 970.657 1331.66 971.106 1331.6 971.555ZM1332.2 965.305C1332.21 965.119 1332.23 964.934 1332.24 964.749C1332.23 964.934 1332.21 965.119 1332.2 965.305ZM1043.6 961.07C1043.58 960.668 1043.57 960.265 1043.56 959.862C1043.57 960.265 1043.58 960.668 1043.6 961.07ZM1043.91 943.151C1043.88 943.588 1043.84 944.025 1043.81 944.463C1043.84 944.025 1043.88 943.588 1043.91 943.151ZM979.923 937.282C979.941 937.058 979.96 936.835 979.979 936.611C979.96 936.835 979.941 937.058 979.923 937.282ZM980.428 931.965C980.408 932.152 980.389 932.338 980.369 932.525C980.389 932.338 980.408 932.152 980.428 931.965ZM982.241 918.974C982.199 919.221 982.157 919.47 982.115 919.718C982.157 919.47 982.199 919.221 982.241 918.974ZM983.458 912.503C983.428 912.651 983.398 912.8 983.368 912.948C983.398 912.8 983.428 912.651 983.458 912.503ZM983.992 909.971C983.924 910.283 983.858 910.595 983.791 910.908C983.858 910.595 983.924 910.283 983.992 909.971ZM994.62 875.705C994.508 875.98 994.395 876.255 994.284 876.531C994.395 876.255 994.508 875.98 994.62 875.705ZM1087.78 850.455L1089.02 849.278L1089.02 849.276C1088.6 849.667 1088.19 850.06 1087.78 850.455ZM1058.23 790.998C1057.79 791.346 1057.36 791.698 1056.92 792.049C1057.36 791.698 1057.79 791.346 1058.23 790.998ZM1096.42 766.884C1096.11 767.036 1095.8 767.188 1095.49 767.342C1095.8 767.188 1096.11 767.036 1096.42 766.884ZM1099.85 765.246C1099.52 765.401 1099.19 765.558 1098.86 765.715C1099.19 765.558 1099.52 765.401 1099.85 765.246ZM1175.65 746.135C1175.32 746.154 1175 746.173 1174.67 746.193C1175 746.173 1175.32 746.154 1175.65 746.135Z" fill="#5D2500"/>
<path d="M644.447 177.119C662.513 176.154 676.097 181.014 689.26 193.509C745.913 247.325 782.78 317.566 793.897 395.005C797.571 420.607 797.182 438.654 798.41 464.081C821.714 462.717 828.527 463.008 851.978 464.98C850.876 448.84 851.389 432.778 850.203 416.5C847.401 378.168 838.667 344.667 827.498 308.266C844.661 269.357 863.503 237.928 894.302 208.013C905.02 197.609 913.345 183.474 928.723 178.829C953.57 171.322 977.493 188.478 983.718 212.643C1002.41 282.099 998.372 356.125 973.924 423.584C964.749 448.891 952.078 471.091 939.702 494.753C968.37 512.818 989.312 529.925 1015.2 551.532C1029.79 563.717 1048.96 576.217 1062.29 589.631C1087.41 614.794 1101.66 648.805 1102 684.362C1102.02 697.572 1100.29 710.565 1096.88 722.997C1048.05 742.231 1006.69 776.483 978.596 820.168C949.558 823.553 918.905 821.377 888.455 821.346C888.245 847.253 885.19 875.166 895.383 899.89C940.227 1008.73 984.043 1118.21 1027.28 1227.62C1031.09 1241.51 1031.06 1259.53 1026.78 1272.89C1011.86 1319.28 961.233 1335.8 920.525 1310.13C898.932 1296.51 894.606 1284.12 885.799 1261.23C866.432 1210.36 844.587 1160.34 826.038 1109.16C820.149 1092.9 810.178 1073.49 806.105 1057.21C797.822 1062.91 792.185 1069.88 785.907 1077.53C758.951 1110.8 721.801 1145.79 695.926 1179.32C719.471 1180.78 747.971 1176.27 770.12 1184.68C843.117 1212.41 824.149 1320.9 745.63 1322.3C727.753 1322.62 709.246 1322.52 691.254 1322.53L588.477 1322.55L502.029 1322.53C487.018 1322.52 472.022 1322.76 457.017 1322.24C391.143 1319.92 347.241 1283.37 321.761 1225.04C302.664 1241.48 300.036 1246.4 275.846 1257.21C191.164 1295.07 97.292 1231.5 100.06 1139.01C101.373 1105.89 115.777 1074.64 140.109 1052.12C164.698 1029.47 197.286 1017.54 230.682 1018.95C271.249 1020.49 294.885 1036.02 321.551 1064.67C327.908 1015.06 359.893 945.506 387.562 904.731C455.818 804.144 554.048 742.927 672.821 721.128L672.695 645.737C672.664 600.575 671.415 582.282 690.719 540.337C615.759 463 580.804 359.888 590.975 252.653C594.344 217.196 600.17 187.71 639.314 177.5C641.025 177.341 642.737 177.213 644.447 177.119ZM958.021 635.803C954.283 616.655 935.713 604.176 916.567 607.943C897.462 611.704 885.002 630.238 888.738 649.356C892.486 668.474 911.003 680.949 930.118 677.23C949.276 673.506 961.768 654.951 958.021 635.803Z" fill="#FF6600"/>
</svg>
